# xmcd
#
# Track frame offsets: 
#        183
#        21383
#        40983
#        57508
#        76958
#        98608
#        121783
#        147483
#        167033
#        187458
#        205183
#        224733
#        245758
#
# Disc length: 3557 seconds
#
# Revision: 0
# Processed by: cddbd v1.5.2PL0 Copyright (c) Steve Scherf et al.
# Submitted via: ExactAudioCopy v0.99pb5
#
DISCID=c90de30d
DTITLE=Hughie Crawford - Ready Or Not
DYEAR=1994
DGENRE=R&B
TTITLE0=I Like It
TTITLE1=Can't Keep A Good Man Down
TTITLE2=Secrets
TTITLE3=Ready Or Not
TTITLE4=Haven't We Done Enough (Duet with Jackie Bennet)
TTITLE5=Give Me Your Love
TTITLE6=Bring Back The Love
TTITLE7=Scratch My Back
TTITLE8=Summertime
TTITLE9=Sweet Feelings
TTITLE10=Friend In Me
TTITLE11=I Just Don't Know
TTITLE12=I Like It (Seventh Heaven Mix)
EXTD=
EXTT0=
EXTT1=
EXTT2=
EXTT3=
EXTT4=
EXTT5=
EXTT6=
EXTT7=
EXTT8=
EXTT9=
EXTT10=
EXTT11=
EXTT12=
PLAYORDER=
